<svg width="123" height="356" viewBox="0 0 123 356" fill="none" xmlns="http://www.w3.org/2000/svg">
<rect x="9" y="260" width="43" height="96" rx="12" fill="#131820"/>
<rect x="66" y="260" width="43" height="96" rx="12" fill="#131820"/>
<rect x="19" y="17" width="81" height="88" rx="30" fill="#ABA582"/>
<rect y="122" width="117" height="167" rx="30" fill="#131820"/>
<path d="M9 34.1121C9 23.7966 15.3358 14.5402 24.9521 10.8068L44.3276 3.28459C49.001 1.47019 54.112 1.10278 58.997 2.23007L82.4319 7.63814C100.814 11.8802 108.054 34.1766 95.6702 48.4085L89.4416 55.5667C85.6443 59.9307 85.2603 66.3042 88.5061 71.0927C94.2458 79.5603 88.1799 91 77.9503 91H34C20.1929 91 9 79.8071 9 66V62.9697V34.1121Z" fill="#636161"/>
</svg>
